<svg width="505" height="566" viewBox="0 0 505 566" fill="none" xmlns="http://www.w3.org/2000/svg">
<path d="M216.485 154.718C216.485 154.718 227.099 167.207 217.443 185.951L195.242 166.682C195.242 166.682 210.25 155.783 216.485 154.718Z" fill="#60414C"/>
<path d="M233.023 224.931C233.023 258.565 207.813 285.829 176.713 285.829C145.613 285.829 120.402 258.565 120.402 224.931C120.402 191.298 145.613 164.034 176.713 164.034C207.813 164.034 233.023 191.298 233.023 224.931Z" fill="#FABD8E"/>
<path d="M337.19 491.201C337.784 485.281 337.19 467.541 330.218 447.519C323.19 427.331 311.952 412.773 303.672 400.241C288.798 377.733 278.407 347.253 278.407 347.253C284.107 348.426 293.814 348.863 300.989 350.605C314.447 353.874 333.642 352.039 344.662 349.698C343.576 346.941 342.561 344.157 341.654 341.338C339.163 333.598 337.443 325.633 336.343 317.581C335.99 314.998 335.644 312.421 335.33 309.838C318.083 310.559 286.031 300.951 266.556 292.921C259.684 290.087 250.414 284.83 236.562 281.729C232.151 280.741 211.018 280.486 208.803 284.125C205.629 289.343 203.396 292.953 198.028 295.738C181.882 304.118 177.204 302.535 166.391 299.405C160.443 297.683 159.928 291.571 154.458 292.374C137.678 294.835 110.524 310.545 110.524 329.115C108.524 345.527 120.891 366.914 127.524 381.823C136.551 402.121 139.974 419.383 151.762 437.851C168.795 464.531 157.77 486.048 151.762 501.402C151.762 501.402 228.62 539.589 290.98 529.587C290.98 529.587 332.802 534.821 337.19 491.201" fill="#F3FBFE"/>
<path d="M200.231 276.718L204.928 292.598C204.928 292.598 202.609 297.142 189.427 303.691C176.243 310.239 162.909 301.414 161.87 292.598V279.95C161.87 279.95 183.399 287.782 200.231 276.718" fill="#FABD8E"/>
<path d="M174.644 359.715C174.644 359.715 212.686 428.893 216.828 440.633C220.972 452.374 246.778 529.231 246.228 540.66C246.228 540.66 225.539 543.871 211.783 538.272C211.783 538.272 207.707 441.447 192.372 410.457C177.035 379.466 172.931 363.133 172.931 363.133L221.144 334.125L174.644 359.715Z" fill="#D5EEF3"/>
<path d="M324.199 141.899H323.239L310.279 161.29H324.199V141.899ZM324.199 185.962V174.73H294.343V162.826L322.951 120.298H338.599V161.29H346.663V174.73H338.599V185.962H324.199Z" fill="#E7E6E6"/>
<path d="M324.199 141.899H323.239L310.279 161.29H324.199V141.899ZM324.199 185.962V174.73H294.343V162.826L322.951 120.298H338.599V161.29H346.663V174.73H338.599V185.962H324.199Z" stroke="#E7E6E6" stroke-width="1.33333" stroke-miterlimit="10"/>
<path d="M383.238 174.058C385.411 174.058 387.345 173.53 389.051 172.475C390.745 171.418 392.185 169.965 393.371 168.107C394.545 166.251 395.451 164.042 396.051 161.483C396.665 158.923 396.971 156.139 396.971 153.131C396.971 150.123 396.665 147.339 396.051 144.779C395.451 142.219 394.545 140.011 393.371 138.154C392.185 136.298 390.745 134.842 389.051 133.787C387.345 132.73 385.411 132.202 383.238 132.202C381.065 132.202 379.131 132.73 377.438 133.787C375.731 134.842 374.291 136.298 373.118 138.154C371.931 140.011 371.025 142.219 370.425 144.779C369.811 147.339 369.518 150.123 369.518 153.131C369.518 156.139 369.811 158.923 370.425 161.483C371.025 164.042 371.931 166.251 373.118 168.107C374.291 169.965 375.731 171.418 377.438 172.475C379.131 173.53 381.065 174.058 383.238 174.058ZM383.238 187.498C378.891 187.498 374.985 186.634 371.531 184.907C368.065 183.178 365.131 180.779 362.691 177.707C360.265 174.634 358.391 171.003 357.079 166.811C355.766 162.621 355.111 158.058 355.111 153.131C355.111 148.205 355.766 143.645 357.079 139.451C358.391 135.259 360.265 131.626 362.691 128.555C365.131 125.483 368.065 123.082 371.531 121.355C374.985 119.626 378.891 118.762 383.238 118.762C387.531 118.762 391.411 119.626 394.905 121.355C398.398 123.082 401.345 125.483 403.785 128.555C406.211 131.626 408.091 135.259 409.398 139.451C410.705 143.645 411.371 148.205 411.371 153.131C411.371 158.058 410.705 162.621 409.398 166.811C408.091 171.003 406.211 174.634 403.785 177.707C401.345 180.779 398.398 183.178 394.905 184.907C391.411 186.634 387.531 187.498 383.238 187.498Z" fill="#E7E6E6"/>
<path d="M383.238 174.058C385.411 174.058 387.345 173.53 389.051 172.475C390.745 171.418 392.185 169.965 393.371 168.107C394.545 166.251 395.451 164.042 396.051 161.483C396.665 158.923 396.971 156.139 396.971 153.131C396.971 150.123 396.665 147.339 396.051 144.779C395.451 142.219 394.545 140.011 393.371 138.154C392.185 136.298 390.745 134.842 389.051 133.787C387.345 132.73 385.411 132.202 383.238 132.202C381.065 132.202 379.131 132.73 377.438 133.787C375.731 134.842 374.291 136.298 373.118 138.154C371.931 140.011 371.025 142.219 370.425 144.779C369.811 147.339 369.518 150.123 369.518 153.131C369.518 156.139 369.811 158.923 370.425 161.483C371.025 164.042 371.931 166.251 373.118 168.107C374.291 169.965 375.731 171.418 377.438 172.475C379.131 173.53 381.065 174.058 383.238 174.058ZM383.238 187.498C378.891 187.498 374.985 186.634 371.531 184.907C368.065 183.178 365.131 180.779 362.691 177.707C360.265 174.634 358.391 171.003 357.079 166.811C355.766 162.621 355.111 158.058 355.111 153.131C355.111 148.205 355.766 143.645 357.079 139.451C358.391 135.259 360.265 131.626 362.691 128.555C365.131 125.483 368.065 123.082 371.531 121.355C374.985 119.626 378.891 118.762 383.238 118.762C387.531 118.762 391.411 119.626 394.905 121.355C398.398 123.082 401.345 125.483 403.785 128.555C406.211 131.626 408.091 135.259 409.398 139.451C410.705 143.645 411.371 148.205 411.371 153.131C411.371 158.058 410.705 162.621 409.398 166.811C408.091 171.003 406.211 174.634 403.785 177.707C401.345 180.779 398.398 183.178 394.905 184.907C391.411 186.634 387.531 187.498 383.238 187.498Z" stroke="#E7E6E6" stroke-width="1.33333" stroke-miterlimit="10"/>
<path d="M449.291 141.899H448.331L435.371 161.29H449.291V141.899ZM449.291 185.962V174.73H419.424V162.826L448.038 120.298H463.691V161.29H471.744V174.73H463.691V185.962H449.291Z" fill="#E7E6E6"/>
<path d="M449.291 141.899H448.331L435.371 161.29H449.291V141.899ZM449.291 185.962V174.73H419.424V162.826L448.038 120.298H463.691V161.29H471.744V174.73H463.691V185.962H449.291Z" stroke="#E7E6E6" stroke-width="1.33333" stroke-miterlimit="10"/>
<path d="M147.414 182.467C147.414 182.467 177.918 185.375 203.798 168.173C229.679 150.969 220.029 140.315 210.449 140.077C200.87 139.837 155.83 123.343 120.25 145.098C84.6685 166.854 95.4151 193.234 95.4151 193.234C95.4151 193.234 90.8231 247.481 152.162 279.751C152.986 275.406 142.741 274.505 142.043 268.239C141.822 266.238 142.63 263.558 141.117 262.633C132.397 257.297 129.15 251.845 128.315 246.101C127.834 242.79 128.242 239.595 130.742 237.441C136.699 232.313 150.866 242.877 150.866 242.877C150.866 242.877 142.049 231.915 152.082 220.597C162.115 209.277 156.538 204.481 156.538 204.481L147.414 182.467" fill="#60414C"/>
<path d="M93.9806 217.565L64.7139 175.471C64.7139 175.471 31.1219 193.169 8.26193 164.127C-14.5981 135.085 17.2326 115.622 17.2326 115.622C17.2326 115.622 -17.5527 57.086 46.5113 45.6327C46.5113 45.6327 58.1592 1.77671 103.859 1.49138C149.557 1.20738 145.719 22.554 145.719 22.554C145.719 22.554 170.981 15.1313 183.627 34.09C196.274 53.0473 198.738 79.6207 178.293 97.038L205.87 139.771C205.87 139.771 145.825 158.57 93.9806 217.565" fill="#F3FBFE"/>
<path d="M85.2884 4.27931C85.2884 4.27931 119.384 5.10599 128.163 43.8313C128.163 43.8313 160.178 46.1233 158.122 71.5687C156.067 97.014 124.407 116.723 97.2364 105.278C97.2364 105.278 104.307 129.265 86.9604 137.321C69.6137 145.379 54.811 131.763 54.811 131.763C54.811 131.763 79.6671 156.001 63.1631 176.015L97.5711 220.917C97.5711 220.917 146.887 163.169 205.87 139.771L179.92 97.93C179.92 97.93 201.595 70.4487 191.154 46.2207C180.714 21.9926 159.167 18.562 146.592 21.9687C146.592 21.9687 142.056 -11.6367 85.2884 4.27931" fill="#D5EEF3"/>
<path d="M156.205 131.791C144.377 133.205 113.421 151.481 83.2712 194.857L93.0205 208.878C93.0205 208.878 140.531 158.234 179.993 143.606C179.993 143.606 176.298 141.065 171.341 138.419C171.102 138.293 125.809 162.247 112.851 175.225C132.243 147.466 165.811 135.722 165.575 135.621C160.269 133.326 161.278 133.081 156.205 131.791" fill="#F3FBFE"/>
<path d="M372.398 218.345C372.451 218.485 372.544 218.637 372.344 218.215C372.344 218.218 372.344 218.221 372.344 218.223C372.371 218.263 372.385 218.303 372.398 218.345Z" fill="#FABA84"/>
<path d="M351.711 345.243C332.902 356.333 330.218 307.145 330.218 307.145C330.218 307.145 352.688 258.626 358.502 247.559C362.184 240.405 367.331 223.525 367.598 218.062C367.598 218.011 367.651 217.978 367.678 217.935C367.344 216.945 367.011 215.947 366.704 214.943C364.851 208.917 352.369 205.342 351.765 199.066C351.706 198.451 362.984 195.306 363.304 194.767C363.598 194.278 364.118 193.978 364.651 193.833C365.184 193.69 365.851 193.837 366.304 194.13C366.611 194.322 366.944 194.69 367.118 195.07C369.224 195.381 371.331 195.587 373.438 195.679C375.771 195.782 378.118 195.753 380.451 195.591C380.771 195.569 381.078 195.545 381.398 195.519C381.451 195.514 381.504 195.509 381.571 195.503C381.571 195.503 381.571 195.503 381.584 195.503C381.638 195.497 381.704 195.49 381.771 195.485C382.344 195.427 382.931 195.361 383.518 195.286C384.678 195.138 385.824 194.957 386.984 194.743C389.278 194.317 391.558 193.761 393.798 193.077C394.358 192.905 394.905 192.726 395.465 192.539C395.745 192.445 396.011 192.35 396.291 192.253C396.424 192.209 396.545 192.162 396.665 192.118C396.678 192.113 396.704 192.106 396.718 192.101C397.811 191.694 398.891 191.253 399.971 190.783C400.784 190.426 426.198 192.789 427.078 192.991C439.224 195.787 434.758 197.667 434.451 198.47C433.544 200.899 399.344 204.954 396.224 211.773C394.958 214.511 392.704 218.149 390.678 230.034C388.638 241.921 378.571 329.905 351.711 345.243" fill="#FABA84"/>
<path d="M177.329 276.59C177.162 276.59 177.161 276.849 177.329 276.849C177.495 276.849 177.495 276.59 177.329 276.59Z" fill="#E89867"/>
<path d="M230.124 469.17C229.955 468.651 229.666 468.201 229.258 467.821C228.878 467.412 228.429 467.123 227.909 466.954C227.41 466.691 226.871 466.571 226.294 466.594C225.922 466.643 225.55 466.693 225.179 466.743C224.469 466.942 223.853 467.302 223.329 467.821C223.11 468.103 222.893 468.386 222.674 468.669C222.294 469.322 222.103 470.029 222.101 470.785V471.455C222.079 472.034 222.201 472.571 222.462 473.071C222.631 473.591 222.921 474.041 223.329 474.421C223.709 474.829 224.158 475.118 224.678 475.287C225.178 475.548 225.715 475.67 226.294 475.649C226.665 475.598 227.037 475.547 227.409 475.498C228.118 475.299 228.735 474.94 229.258 474.421C229.476 474.138 229.695 473.855 229.914 473.571C230.292 472.918 230.483 472.211 230.485 471.455V470.785C230.507 470.209 230.387 469.67 230.124 469.17" fill="#CAC9C9"/>
<path d="M333.483 300.634C333.483 300.634 344.908 345.53 349.827 346.871C349.827 346.871 335.271 359.046 324.092 350.103C312.914 341.159 314.199 301.946 320.926 302.547C327.652 303.151 333.483 300.634 333.483 300.634Z" fill="#D5EEF3"/>
<path d="M504.491 192.541C504.531 189.311 502.091 185.765 498.531 185.819C469.238 186.263 439.944 186.471 410.664 186.439C381.371 186.407 352.074 186.138 322.786 185.627C306.35 185.341 289.914 184.979 273.48 184.543C270.162 184.455 266.814 186.986 266.759 190.499C266.706 193.846 269.156 197.127 272.714 197.221C301.995 197.998 331.283 198.538 360.571 198.838C389.864 199.138 419.158 199.199 448.451 199.022C464.891 198.922 481.331 198.746 497.771 198.495C501.078 198.445 504.424 196.153 504.491 192.541" fill="#BDBCBC"/>
<path d="M417.718 451.702C415.931 447.423 413.891 443.494 412.225 440.423C402.998 423.461 390.118 408.851 372.531 400.267C371.118 399.577 369.678 398.929 368.225 398.322C361.478 395.518 354.378 393.669 347.125 392.787C346.83 392.751 345.271 387.777 345.075 387.371C343.879 384.89 342.402 382.513 340.039 380.986C337.235 379.173 333.577 378.891 330.41 379.953C325.011 381.765 323.373 385.555 321.497 390.359C320.975 391.697 321.651 392.034 320.601 393.014C319.061 394.451 314.657 394.689 312.675 395.247C308.929 396.303 305.253 397.602 301.674 399.131C274.607 410.701 256.075 436.499 252.719 465.671C251.453 476.694 254.039 488.595 267.089 488.346C312.994 487.473 358.901 486.598 404.811 485.724C408.171 485.66 412.158 485.331 415.038 483.387C425.238 476.478 422.371 462.893 417.718 451.702" fill="#E7E6E6"/>
<path d="M413.865 465.309C411.905 459.458 409.518 453.723 406.824 448.174C404.638 443.654 402.158 439.277 399.411 435.074C396.065 429.954 392.331 425.058 388.371 420.402C385.091 416.547 381.571 412.906 377.824 409.511C376.771 408.555 375.705 407.602 374.598 406.707C373.211 405.587 371.811 404.402 370.291 403.462C368.744 402.502 366.971 401.782 365.238 401.258C364.358 400.99 363.385 400.935 362.505 400.819C361.705 400.713 360.785 400.513 359.945 400.554C358.259 400.638 356.416 400.781 354.796 401.382C351.726 402.521 350.031 403.351 347.615 405.638C347.533 405.717 347.459 405.801 347.382 405.885C346.981 406.39 346.586 406.901 346.199 407.418C345.785 407.914 345.392 408.427 345.024 408.957C344.287 410.171 343.829 411.558 343.335 412.878C343.131 413.535 342.991 414.193 342.914 414.849C343.239 415.269 343.565 415.691 343.89 416.113C344.429 417.239 344.97 418.365 345.514 419.487C345.902 419.661 346.288 419.854 346.68 420.067C348.335 420.965 349.866 422.126 351.331 423.326C352.075 423.565 352.798 423.909 353.48 424.239C354.416 424.691 355.265 425.422 356.054 426.059C357.359 427.117 358.391 428.538 359.334 429.906C359.371 429.955 359.398 430.006 359.438 430.055C359.438 430.055 359.438 430.055 359.451 430.054C361.011 431.526 362.531 433.053 364.011 434.59C366.505 437.181 368.878 439.889 371.131 442.698C375.518 448.546 379.371 454.794 382.611 461.355C383.331 462.817 384.025 464.293 384.678 465.782C385.611 468.061 386.465 470.366 387.238 472.698C387.678 474.494 388.505 476.058 389.718 477.39C390.691 478.891 391.998 480.075 393.598 480.939C395.185 481.946 396.905 482.489 398.745 482.57C400.571 482.978 402.411 482.891 404.251 482.314C405.345 481.847 406.438 481.381 407.545 480.916C409.611 479.685 411.264 478.03 412.491 475.953C412.944 474.851 413.411 473.751 413.878 472.651C414.531 470.202 414.518 467.755 413.865 465.309" fill="#E5E4E4"/>
<path d="M405.985 454.789C404.425 450.058 402.625 445.415 400.611 440.863C398.838 436.882 396.798 433.011 394.411 429.37C389.305 421.606 382.785 414.741 374.745 409.986C372.331 408.561 369.771 407.425 367.171 406.39C365.091 405.562 362.931 404.925 360.731 404.486C359.691 404.162 358.662 404.115 357.63 404.347C356.595 404.394 355.634 404.702 354.742 405.269C353.13 406.211 351.594 408.061 351.171 409.913C350.718 411.902 350.817 414.134 351.954 415.899C353.006 417.531 354.626 419.078 356.597 419.47C358.745 419.897 360.838 420.519 362.878 421.314C365.678 422.583 368.305 424.163 370.771 425.985C373.718 428.367 376.385 431.077 378.758 434.03C382.331 438.819 385.185 444.093 387.558 449.566C388.825 452.64 389.958 455.765 390.998 458.921C391.625 460.835 392.798 462.526 394.571 463.563C395.465 464.131 396.425 464.438 397.451 464.486C398.491 464.715 399.518 464.67 400.558 464.346C402.438 463.738 404.251 462.573 405.198 460.775C406.145 458.979 406.638 456.781 405.985 454.789" fill="#F6F6F6"/>
<path d="M320.601 393.014C320.601 393.014 256.331 434.351 290.358 487.903C290.358 487.903 270.125 488.687 262.706 487.903C255.289 487.119 243.469 471.931 257.493 443.562C271.517 415.194 288.311 398.862 320.601 393.014Z" fill="#D5D4D5"/>
<path d="M236.902 323.019C236.867 323.018 236.835 323.018 236.807 323.017C231.851 322.947 226.469 321.461 222.427 318.539C220.453 317.111 218.745 315.21 218.027 312.841C217.206 310.126 217.075 310.293 217.934 307.645C219.213 303.709 219.939 301.641 220.275 299.014C220.834 295.435 221.337 291.985 219.883 288.058C218.246 283.631 217.011 281.718 213.498 279.95C211.953 280.898 209.914 280.009 207.318 280.511C205.069 280.947 202.933 283.605 202.431 284.158C202.743 285.209 204.918 289.042 201.87 292.598C193.369 302.513 184.497 303.962 171.733 300.765C168.986 300.078 167.771 299.679 165.286 298.337C163.081 297.147 162.981 296.366 162.397 294.533C162.058 293.467 161.934 290.351 161.87 289.338C159.221 289.718 151.751 290.531 148.803 291.634C146.275 292.579 144.778 294.299 142.385 295.722C141.401 298.851 142.278 303.379 143.287 306.709C144.127 309.473 149.793 317.141 151.709 319.006C154.541 321.763 160.573 325.907 165.089 326.715C166.403 326.951 167.89 326.871 168.951 327.797C170.863 329.463 170.673 333.306 170.771 335.59C171.127 343.863 169.217 352.054 165.938 359.621C164.211 363.606 160.934 366.726 159.191 370.633C163.097 370.405 167.509 367.73 170.971 366.045C175.551 363.815 180.522 361.509 184.421 358.179C188.666 354.554 192.095 349.985 194.446 344.923C195.638 342.359 196.554 339.666 197.155 336.902C197.347 336.022 198.805 330.053 198.053 329.503C200.983 331.65 203.154 334.175 206.555 335.722C219.071 341.418 236.753 334.781 242.706 322.377C242.733 322.319 242.761 322.262 242.789 322.203C242.349 323.143 238.037 323.039 236.902 323.019" fill="#A25D7C"/>
<path d="M149.623 291.346C149.623 291.346 151.381 309.319 175.822 313.846C200.262 318.374 219.57 300.733 209.89 282.985L211.329 281.149C211.329 281.149 219.589 290.103 217.471 300.634C215.354 311.163 182.657 331.787 160.355 320.218C138.054 308.649 146.169 293.053 146.169 293.053L149.623 291.346Z" fill="#BD7193"/>
<path d="M179.223 326.027C179.223 326.027 182.656 344.19 172.931 354.754C172.931 354.754 183.692 349.705 188.539 323.639L179.223 326.027" fill="#BD7193"/>
<path d="M213.567 311.377C213.567 311.377 219.27 331.646 239.312 325.589C239.312 325.589 220.148 332.285 205.628 316.807L213.567 311.377" fill="#BD7193"/>
<path d="M146.169 293.053C146.169 293.053 150.878 318.039 173.223 321.559C195.569 325.081 220.385 307.81 216.026 293.053C213.999 286.618 209.189 280.346 209.189 280.346C209.189 280.346 212.271 279.111 213.974 280.199C215.677 281.286 226.082 287.241 218.27 306.614C210.461 325.987 174.486 328.85 165.829 326.822C157.173 324.795 139.841 315.157 142.385 295.722L146.169 293.053" fill="#955A75"/>
<path d="M218.137 307.951C218.287 307.322 218.325 306.354 218.282 305.013C218.149 300.891 216.974 298.889 214.015 296.05C212.651 294.743 208.202 292.474 205.973 292.603C202.867 292.785 201.597 292.713 199.409 294.211C189.735 300.834 177.303 301.341 166.24 298.794C168.806 299.385 173.701 306.63 173.993 308.647C174.546 312.459 174.663 315.13 173.003 319.089C172.137 321.155 168.972 325.493 166.951 326.909C167.288 326.673 169.403 327.225 169.891 327.262C176.206 327.721 182.431 326.435 188.539 324.987C194.695 323.529 200.771 321.521 206.35 318.502C208.674 317.245 210.896 315.794 212.956 314.135C214.675 312.75 216.251 311.709 217.35 309.978C217.359 309.962 217.983 308.591 218.137 307.951" fill="#955A75"/>
<path d="M240.511 326.019C240.511 326.019 221.056 342.815 202.192 320.534L192.372 323.639C192.372 323.639 187.403 361.465 160.212 370.521C160.212 370.521 180.328 365.423 189.122 353.383C197.915 341.346 198.912 335.031 198.052 329.503C198.052 329.503 214.888 355.263 240.511 326.019Z" fill="#955A75"/>
<path d="M414.438 473.921C414.185 473.302 413.918 472.683 413.665 472.065C412.971 470.897 412.038 469.969 410.878 469.277C410.425 469.053 409.985 468.83 409.531 468.606C408.638 468.04 407.678 467.731 406.638 467.685C405.611 467.453 404.571 467.499 403.545 467.822C402.531 468.063 401.651 468.528 400.905 469.214C400.051 469.762 399.385 470.487 398.905 471.394L398.118 473.25C397.745 474.628 397.745 476.003 398.118 477.381C398.385 477.999 398.638 478.618 398.905 479.236C399.598 480.405 400.518 481.333 401.691 482.024C402.131 482.247 402.585 482.471 403.025 482.695C403.918 483.263 404.891 483.57 405.918 483.617C406.958 483.847 407.985 483.802 409.011 483.478C410.025 483.238 410.905 482.774 411.665 482.087C412.505 481.54 413.171 480.812 413.665 479.907C413.918 479.289 414.185 478.67 414.438 478.051C414.811 476.674 414.811 475.298 414.438 473.921" fill="#F6F6F6"/>
<path d="M196.635 368.541C196.635 370.951 194.68 372.906 192.268 372.906C189.859 372.906 187.905 370.951 187.905 368.541C187.905 366.13 189.859 364.175 192.268 364.175C194.68 364.175 196.635 366.13 196.635 368.541Z" fill="#D5D4D5"/>
<path d="M207.591 386.19C207.591 388.599 205.637 390.554 203.226 390.554C200.815 390.554 198.861 388.599 198.861 386.19C198.861 383.778 200.815 381.823 203.226 381.823C205.637 381.823 207.591 383.778 207.591 386.19Z" fill="#D5D4D5"/>
<path d="M218.547 403.838C218.547 406.25 216.594 408.205 214.182 408.205C211.771 408.205 209.816 406.25 209.816 403.838C209.816 401.429 211.771 399.474 214.182 399.474C216.594 399.474 218.547 401.429 218.547 403.838Z" fill="#D5D4D5"/>
<path d="M229.503 421.487C229.503 423.898 227.548 425.853 225.139 425.853C222.727 425.853 220.772 423.898 220.772 421.487C220.772 419.077 222.727 417.122 225.139 417.122C227.548 417.122 229.503 419.077 229.503 421.487Z" fill="#D5D4D5"/>
<path d="M244.277 455.357C244.277 455.357 253.553 472.843 259.59 494.795C254.927 503.857 230.022 517.209 218.279 517.553C220.887 486.454 216.829 472.197 216.829 472.197L244.277 455.357" fill="white"/>
<path d="M307.152 412.541C311.788 406.837 328.658 403.427 332.503 397.658C336.35 391.89 340.196 381.506 341.734 375.353C343.272 369.199 336.35 364.969 330.966 357.937C325.582 350.907 319.429 357.277 311.675 360.354C303.923 363.431 293.038 373.09 295.049 387.611C276.781 408.014 214.851 427.534 196.406 435.246L187.068 420.291C187.068 420.291 153.85 429.597 157.918 455.73C165.451 469.791 176.119 481.193 183.928 483.541C191.735 485.887 191.738 485.105 198.443 482.202C216.658 474.314 301.98 418.905 307.152 412.541" fill="#FABA84"/>
<path d="M184.13 419.837C184.13 419.837 162.55 425.075 153.245 441.686C151.877 444.126 151.074 456.236 152.559 458.607L157.307 466.191C160.095 470.643 166.629 470.497 169.213 465.926C176.138 453.674 188.729 434.898 201.662 433.133C201.662 433.133 194.779 417.479 184.13 419.837" fill="#D5EEF3"/>
<path d="M226.575 424.223C226.575 424.223 214.006 414.459 209.558 482.193C205.108 549.924 233.023 560.654 233.023 560.654C233.023 560.654 228.23 565.348 193.186 565.348C180.023 565.348 164.977 572.054 166.265 535.17C167.554 498.286 150.371 445.303 192.493 435.246C192.493 435.246 219.275 418.234 226.575 424.223Z" fill="white"/>
<path d="M192.745 244.402C192.745 244.402 204.746 230.559 217.113 239.514" stroke="#D5717B" stroke-width="2.66667" stroke-miterlimit="10" stroke-linecap="round"/>
<path d="M134.139 240.45C134.139 240.45 129.582 245.479 136.019 252.302" stroke="#ED946D" stroke-width="2" stroke-miterlimit="10" stroke-linecap="round"/>
<path d="M222.435 207.795C222.435 207.795 216.924 213.195 209.619 209.837" stroke="#60424D" stroke-width="2.66667" stroke-miterlimit="10" stroke-linecap="round"/>
<path d="M195.242 213.475C195.242 213.475 189.73 218.875 182.426 215.517" stroke="#60424D" stroke-width="2.66667" stroke-miterlimit="10" stroke-linecap="round"/>
</svg>
