<svg width="186" height="162" viewBox="0 0 186 162" fill="none" xmlns="http://www.w3.org/2000/svg">
<g clip-path="url(#clip0)">
<path d="M83.948 156.557C83.948 156.557 -12.028 26.3505 65.534 9.21652C143.096 -7.9175 100.812 152.845 100.812 152.845L83.948 156.557Z" fill="#A25D7C"/>
<path d="M84.63 152.907C84.63 152.907 77.872 2.84537 136.896 15.0928C200.88 28.3918 101.494 149.134 101.494 149.134L84.63 152.907Z" fill="#A25D7C"/>
<path d="M114.576 75.4021C114.576 74.9691 112.778 33.7732 137.33 3.71135L139.562 5.50516C115.754 34.701 117.428 74.8454 117.49 75.2165L114.576 75.4021Z" fill="white"/>
<path d="M62.558 68.5361C55.986 43.8557 41.354 21.3402 41.23 21.0928L43.648 19.5464C43.772 19.7938 58.652 42.6804 65.348 67.7938L62.558 68.5361Z" fill="white"/>
<path d="M79.05 57.8969C76.384 32.6598 69.006 12.6186 68.944 12.3711L71.61 11.3814C71.672 11.567 79.174 31.9794 81.902 57.5876L79.05 57.8969Z" fill="white"/>
<path d="M102.61 51.7114C104.16 28.9485 98.642 7.05156 98.642 6.86599L101.432 6.18558C101.494 6.433 107.136 28.701 105.524 51.9588L102.61 51.7114Z" fill="white"/>
<path d="M137.02 1.60826C131.564 2.84537 132.494 11.5052 138.012 10.2681C143.468 9.09279 142.538 0.371145 137.02 1.60826Z" fill="white"/>
<path d="M100.13 0.123731C94.674 1.36084 95.604 10.0206 101.122 8.78352C106.64 7.60827 105.648 -1.11338 100.13 0.123731Z" fill="white"/>
<path d="M69.874 6.43303C64.418 7.67014 65.348 16.3299 70.866 15.0928C76.384 13.9176 75.392 5.19591 69.874 6.43303Z" fill="white"/>
<path d="M41.23 14.2887C34.844 15.7113 35.96 25.8557 42.408 24.433C48.794 23.0103 47.616 12.866 41.23 14.2887Z" fill="white"/>
<path d="M83.948 156.557C83.948 156.557 -29.45 108 7.37797 66C60.574 5.44333 83.948 156.557 83.948 156.557Z" fill="#F6A5B8"/>
<path d="M82.7699 156.495C82.7699 156.495 12.3999 45.8969 88.9079 36.9897C165.726 28.0206 102.362 153.155 102.362 153.155L82.7699 156.495Z" fill="#F6A5B8"/>
<path d="M105.152 153.773C105.152 153.773 122.326 22.5773 176.7 62.2268C218.55 92.7217 105.152 153.773 105.152 153.773Z" fill="#F6A5B8"/>
<path d="M84.754 143.258C84.754 143.258 69.812 95.0722 73.47 80.7835L88.102 122.598C88.102 122.598 77.128 79.7938 88.288 57.6495C88.288 57.6495 90.024 90.9279 96.534 116.412C96.534 116.412 95.604 81.031 100.626 71.3196L102.858 117.835L112.406 86.4743C112.406 86.4743 107.26 129.217 107.322 141.278L84.754 143.258Z" fill="#A25D7C"/>
<path d="M69.502 145.856L30.008 115.485L52.948 127.299C52.948 127.299 36.022 110.351 28.334 94.3918L54.622 121.237L39.06 86.8454C39.06 86.8454 53.94 104.598 61.318 119.134C61.318 119.134 60.636 104.227 56.73 94.9485C56.73 94.9485 72.168 125.381 78.74 148.33L69.502 145.856Z" fill="#A25D7C"/>
<path d="M115.196 141.464L157.542 115.237L133.486 124.701C133.486 124.701 152.024 109.546 161.324 94.4536L132.432 118.577L151.404 85.7938C151.404 85.7938 134.85 101.938 126.046 115.67C126.046 115.67 128.216 100.948 133.052 92.1031C133.052 92.1031 114.638 120.804 105.772 143.01L115.196 141.464Z" fill="#A25D7C"/>
<path d="M99.0759 161.629C77.4379 164.289 67.6419 152.474 56.8539 135.835L79.5459 142.949L79.4839 108.742L92.9999 140.907L100.688 106.887L104.656 141.402L125.116 118.392L114.576 142.887L135.346 123.34C135.346 123.402 126.418 158.289 99.0759 161.629Z" fill="#7B994E"/>
</g>
<defs>
<clipPath id="clip0">
<path d="M0 0H186V162H0V0Z" fill="white"/>
</clipPath>
</defs>
</svg>
